# xmcd
#
# Track frame offsets:
#	150
#	19472
#	36588
#	54031
#	67600
#	82669
#	96174
#	116600
#	135431
#	151646
#	169315
#	189679
#	208900
#	229810
#	242948
#	261398
#	281032
#	296209
#	310228
#	327092
#	341699
#
# Disc length: 4791 seconds
#
# Revision: 0
# Processed by: cddbd v1.5.2PL0 Copyright (c) Steve Scherf et al.
# Submitted via: EasyCDDAExtractor 12.0.0.1
#
DISCID=3312b515
DTITLE=исполнитель - альбом
DYEAR=1900
DGENRE=
TTITLE0=название дорожки 1
TTITLE1=название дорожки 2
TTITLE2=название дорожки 3
TTITLE3=название дорожки 4
TTITLE4=название дорожки 5
TTITLE5=название дорожки 6
TTITLE6=название дорожки 7
TTITLE7=название дорожки 8
TTITLE8=название дорожки 9
TTITLE9=название дорожки 10
TTITLE10=название дорожки 11
TTITLE11=название дорожки 12
TTITLE12=название дорожки 13
TTITLE13=название дорожки 14
TTITLE14=название дорожки 15
TTITLE15=название дорожки 16
TTITLE16=название дорожки 17
TTITLE17=название дорожки 18
TTITLE18=название дорожки 19
TTITLE19=название дорожки 20
TTITLE20=название дорожки 21
EXTD=
EXTT0=
EXTT1=
EXTT2=
EXTT3=
EXTT4=
EXTT5=
EXTT6=
EXTT7=
EXTT8=
EXTT9=
EXTT10=
EXTT11=
EXTT12=
EXTT13=
EXTT14=
EXTT15=
EXTT16=
EXTT17=
EXTT18=
EXTT19=
EXTT20=
PLAYORDER=
